<svg width="100" height="100" viewBox="0 0 100 100" fill="none" xmlns="http://www.w3.org/2000/svg">
<circle cx="50" cy="50" r="50" fill="#1F2937"/>
<path d="M74 54H35.5C36.5 67.5 48 74 54 74C60.5 74 65 70.5 67.5 67L75 73.5C70 80.5 62.5 84 54 84C37 84 26 71.5 26 52C26 33.5 38 19 53.5 19C70 19 76.5 33 76.5 48C76.5 50.5 76 52.5 74 54ZM36 45.5H66.5C66 37.5 60.5 28.5 53 28.5C45 28.5 38.5 36 36 45.5Z" fill="url(#paint0_linear)"/>
<defs>
<linearGradient id="paint0_linear" x1="26" y1="19" x2="76.5" y2="84" gradientUnits="userSpaceOnUse">
<stop stop-color="#34D399"/>
<stop offset="1" stop-color="#3B82F6"/>
</linearGradient>
</defs>
</svg>